<?xml version="1.0" encoding="utf-8"?>
<!-- Generator: Adobe Illustrator 24.3.0, SVG Export Plug-In . SVG Version: 6.00 Build 0)  -->
<svg version="1.1" id="Layer_1" xmlns="http://www.w3.org/2000/svg" xmlns:xlink="http://www.w3.org/1999/xlink" x="0px" y="0px"
	 viewBox="0 0 940.15 586.43" style="enable-background:new 0 0 940.15 586.43;" xml:space="preserve">
<g>
	<g>
		<linearGradient id="SVGID_1_" gradientUnits="userSpaceOnUse" x1="664.955" y1="232.0757" x2="379.775" y2="232.0757">
			<stop  offset="0" style="stop-color:#013878"/>
			<stop  offset="0.0882" style="stop-color:#0A3A75"/>
			<stop  offset="0.2342" style="stop-color:#233E6C"/>
			<stop  offset="0.4198" style="stop-color:#4C455E"/>
			<stop  offset="0.6377" style="stop-color:#854F4A"/>
			<stop  offset="0.8802" style="stop-color:#CD5B30"/>
			<stop  offset="1" style="stop-color:#F36223"/>
		</linearGradient>
		<polygon style="fill:url(#SVGID_1_);" points="375.44,173.35 464.78,310.75 490.8,310.75 388.45,153.41 		"/>
		<linearGradient id="SVGID_2_" gradientUnits="userSpaceOnUse" x1="664.955" y1="179.0762" x2="379.775" y2="179.0762">
			<stop  offset="0" style="stop-color:#013878"/>
			<stop  offset="0.492" style="stop-color:#553170"/>
			<stop  offset="1" style="stop-color:#F36223"/>
		</linearGradient>
		<path style="fill:url(#SVGID_2_);" d="M620.65,47.45l-81.52,125.01L457.6,47.42l-69.16,105.99l-68.91-106L147.78,310.75h164.13
			L457.59,87.37l144.87,223.38h26.02l-76.37-118.33l68.54-105.06l131.44,201.59h-77.96l14.23,21.81h104.01L620.65,47.45z
			 M188.06,288.94L319.53,87.36l55.92,85.99l-75.37,115.59H188.06z"/>
		<linearGradient id="SVGID_3_" gradientUnits="userSpaceOnUse" x1="664.955" y1="34.6396" x2="379.775" y2="34.6396">
			<stop  offset="0" style="stop-color:#013878"/>
			<stop  offset="0.492" style="stop-color:#553170"/>
			<stop  offset="1" style="stop-color:#F36223"/>
		</linearGradient>
		<path style="fill:url(#SVGID_3_);" d="M433.27,69.28l11.42-17.53L443,49.51c-2.35-3.12-3.59-6.85-3.59-10.77
			c0-4.83,1.89-9.4,5.31-12.85c3.47-3.44,8.04-5.33,12.87-5.33c4.84,0,9.39,1.89,12.82,5.31c3.44,3.47,5.34,8.04,5.34,12.87
			c0,3.93-1.24,7.65-3.59,10.77l-1.69,2.24l11.43,17.49l3.48-3.59c7.04-7.26,10.92-16.82,10.92-26.92C496.31,17.38,478.94,0,457.6,0
			c-21.36,0-38.74,17.38-38.74,38.74c0,10.12,3.88,19.69,10.92,26.95L433.27,69.28z"/>
		<linearGradient id="SVGID_4_" gradientUnits="userSpaceOnUse" x1="664.955" y1="23.4492" x2="379.775" y2="23.4492">
			<stop  offset="0" style="stop-color:#013878"/>
			<stop  offset="0.492" style="stop-color:#553170"/>
			<stop  offset="1" style="stop-color:#F36223"/>
		</linearGradient>
		<circle style="fill:url(#SVGID_4_);" cx="621.13" cy="23.45" r="15.93"/>
		<linearGradient id="SVGID_5_" gradientUnits="userSpaceOnUse" x1="664.955" y1="23.4492" x2="379.775" y2="23.4492">
			<stop  offset="0" style="stop-color:#013878"/>
			<stop  offset="0.492" style="stop-color:#553170"/>
			<stop  offset="1" style="stop-color:#F36223"/>
		</linearGradient>
		<path style="fill:url(#SVGID_5_);" d="M320.21,39.38c8.78,0,15.93-7.15,15.93-15.93s-7.15-15.93-15.93-15.93
			c-8.78,0-15.93,7.15-15.93,15.93S311.42,39.38,320.21,39.38z"/>
	</g>
	<g>
		<g>
			<path style="fill:#060B33;" d="M35.36,573.87H11.79l-4.34,12.02H0l19.54-53.74h8.14l19.46,53.74H39.7L35.36,573.87z
				 M33.34,568.13l-9.77-27.3l-9.77,27.3H33.34z"/>
			<path style="fill:#060B33;" d="M125.27,584.53c-2.82-1.27-5.03-3.02-6.63-5.27c-1.6-2.25-2.43-4.85-2.48-7.79h7.52
				c0.26,2.53,1.31,4.67,3.14,6.4c1.83,1.73,4.51,2.6,8.03,2.6c3.36,0,6.01-0.84,7.95-2.52c1.94-1.68,2.91-3.84,2.91-6.48
				c0-2.07-0.57-3.75-1.71-5.04c-1.14-1.29-2.56-2.27-4.27-2.95c-1.71-0.67-4.01-1.4-6.9-2.17c-3.57-0.93-6.42-1.86-8.57-2.79
				c-2.15-0.93-3.98-2.39-5.51-4.38c-1.53-1.99-2.29-4.67-2.29-8.03c0-2.95,0.75-5.56,2.25-7.83c1.5-2.27,3.61-4.03,6.32-5.27
				c2.71-1.24,5.83-1.86,9.34-1.86c5.07,0,9.21,1.27,12.45,3.8c3.23,2.53,5.05,5.89,5.47,10.08h-7.75
				c-0.26-2.07-1.35-3.89-3.26-5.47c-1.91-1.58-4.45-2.37-7.6-2.37c-2.95,0-5.35,0.76-7.21,2.29c-1.86,1.53-2.79,3.66-2.79,6.4
				c0,1.96,0.55,3.57,1.67,4.81c1.11,1.24,2.48,2.18,4.11,2.83c1.63,0.65,3.92,1.38,6.86,2.21c3.57,0.98,6.44,1.95,8.61,2.91
				c2.17,0.96,4.03,2.43,5.58,4.42c1.55,1.99,2.33,4.69,2.33,8.1c0,2.64-0.7,5.12-2.09,7.44c-1.4,2.33-3.46,4.21-6.2,5.66
				c-2.74,1.45-5.97,2.17-9.69,2.17C131.28,586.43,128.09,585.8,125.27,584.53z"/>
			<path style="fill:#060B33;" d="M258.53,531.84v5.74H243.8v48.31h-7.06v-48.31h-14.81v-5.74H258.53z"/>
			<path style="fill:#060B33;" d="M357.71,585.89l-12.87-22.1h-8.53v22.1h-7.06v-54.05h17.45c4.08,0,7.53,0.7,10.35,2.09
				c2.82,1.4,4.92,3.28,6.32,5.66c1.4,2.38,2.09,5.09,2.09,8.14c0,3.72-1.07,7.01-3.22,9.85c-2.15,2.84-5.36,4.73-9.65,5.66
				l13.57,22.64H357.71z M336.31,558.13h10.39c3.83,0,6.69-0.94,8.61-2.83c1.91-1.89,2.87-4.41,2.87-7.56c0-3.2-0.94-5.69-2.83-7.44
				c-1.89-1.76-4.77-2.64-8.65-2.64h-10.39V558.13z"/>
			<path style="fill:#060B33;" d="M449.21,582.9c-4.14-2.35-7.41-5.63-9.81-9.85c-2.4-4.21-3.61-8.96-3.61-14.23
				c0-5.27,1.2-10.01,3.61-14.23c2.4-4.21,5.67-7.49,9.81-9.85c4.14-2.35,8.71-3.53,13.73-3.53c5.07,0,9.67,1.18,13.8,3.53
				c4.14,2.35,7.39,5.62,9.77,9.81c2.38,4.19,3.57,8.94,3.57,14.27c0,5.33-1.19,10.08-3.57,14.27c-2.38,4.19-5.63,7.46-9.77,9.81
				c-4.14,2.35-8.74,3.53-13.8,3.53C457.92,586.43,453.35,585.26,449.21,582.9z M473.14,577.67c3.02-1.76,5.4-4.26,7.13-7.52
				c1.73-3.26,2.6-7.03,2.6-11.32c0-4.34-0.86-8.13-2.6-11.36c-1.73-3.23-4.1-5.72-7.1-7.48c-3-1.76-6.41-2.64-10.24-2.64
				c-3.83,0-7.24,0.88-10.24,2.64c-3,1.76-5.36,4.25-7.1,7.48c-1.73,3.23-2.6,7.02-2.6,11.36c0,4.29,0.86,8.07,2.6,11.32
				c1.73,3.26,4.11,5.77,7.13,7.52c3.02,1.76,6.42,2.64,10.2,2.64C466.71,580.31,470.11,579.43,473.14,577.67z"/>
			<path style="fill:#060B33;" d="M568.48,580.15h18.92v5.74h-25.98v-54.05h7.06V580.15z"/>
			<path style="fill:#060B33;" d="M667.73,582.9c-4.14-2.35-7.41-5.63-9.81-9.85c-2.4-4.21-3.61-8.96-3.61-14.23
				c0-5.27,1.2-10.01,3.61-14.23c2.4-4.21,5.67-7.49,9.81-9.85c4.14-2.35,8.71-3.53,13.72-3.53c5.07,0,9.67,1.18,13.8,3.53
				c4.14,2.35,7.39,5.62,9.77,9.81c2.38,4.19,3.57,8.94,3.57,14.27c0,5.33-1.19,10.08-3.57,14.27c-2.38,4.19-5.64,7.46-9.77,9.81
				c-4.14,2.35-8.74,3.53-13.8,3.53C676.44,586.43,671.87,585.26,667.73,582.9z M691.65,577.67c3.02-1.76,5.4-4.26,7.13-7.52
				c1.73-3.26,2.6-7.03,2.6-11.32c0-4.34-0.87-8.13-2.6-11.36c-1.73-3.23-4.1-5.72-7.1-7.48c-3-1.76-6.41-2.64-10.24-2.64
				c-3.83,0-7.24,0.88-10.23,2.64c-3,1.76-5.36,4.25-7.1,7.48c-1.73,3.23-2.6,7.02-2.6,11.36c0,4.29,0.86,8.07,2.6,11.32
				c1.73,3.26,4.11,5.77,7.13,7.52c3.02,1.76,6.42,2.64,10.2,2.64C685.23,580.31,688.63,579.43,691.65,577.67z"/>
			<path style="fill:#060B33;" d="M820.88,547.5c-1.5-3.15-3.67-5.6-6.51-7.33c-2.84-1.73-6.15-2.6-9.93-2.6
				c-3.77,0-7.17,0.87-10.2,2.6c-3.02,1.73-5.4,4.21-7.13,7.44c-1.73,3.23-2.6,6.97-2.6,11.2c0,4.24,0.86,7.96,2.6,11.17
				c1.73,3.21,4.11,5.67,7.13,7.41c3.02,1.73,6.42,2.6,10.2,2.6c5.27,0,9.62-1.58,13.03-4.73c3.41-3.15,5.4-7.42,5.97-12.8h-21.56
				v-5.74h29.08v5.43c-0.41,4.45-1.81,8.52-4.19,12.21c-2.38,3.7-5.51,6.62-9.38,8.76c-3.88,2.14-8.19,3.22-12.95,3.22
				c-5.01,0-9.59-1.17-13.72-3.53c-4.14-2.35-7.41-5.62-9.81-9.81c-2.4-4.19-3.61-8.92-3.61-14.19c0-5.27,1.2-10.01,3.61-14.23
				c2.4-4.21,5.67-7.49,9.81-9.85c4.14-2.35,8.71-3.53,13.72-3.53c5.74,0,10.82,1.42,15.24,4.26c4.42,2.84,7.64,6.85,9.65,12.02
				H820.88z"/>
			<path style="fill:#060B33;" d="M940.15,531.84l-17.6,33.66v20.39h-7.06v-20.39l-17.68-33.66h7.83l13.34,27.37l13.34-27.37H940.15
				z"/>
		</g>
		<g>
			<path style="fill:#060B33;" d="M139.54,379.56c-10.47,2.31-12.11,5.87-12.11,23.11v74.66c0,17.24,1.64,20.8,12.11,23.11v1.78
				H98.15v-1.78c10.47-2.31,12.11-5.87,12.11-23.11v-91.54L64.78,502.21h-2.95L21.92,402.14c-2.62-6.22-4.74-10.84-7.2-14.22v89.41
				c0,17.24,1.64,20.8,12.11,23.11v1.78H0v-1.78c10.47-2.31,12.11-5.87,12.11-23.11V384.9c-2.78-2.85-5.89-4.27-9.98-5.33v-1.78
				h27.81l40.41,102.56l39.91-102.56h29.28V379.56z"/>
			<path style="fill:#060B33;" d="M255.69,478.04c5.89,15.64,8.02,20.26,17.99,22.4v1.78h-40.24v-1.78
				c10.96-1.78,10.31-6.4,5.07-20.62l-6.22-17.6h-44.66l-6.22,17.42c-5.23,14.4-5.89,19.02,5.07,20.8v1.78h-25.68v-1.78
				c9.65-1.96,11.94-6.4,17.83-21.69l37.3-102.74h2.94L255.69,478.04z M188.78,459.37h42.53l-20.94-60.08L188.78,459.37z"/>
			<path style="fill:#060B33;" d="M348.28,377.79h25.68v1.78c-9.32,2.13-13.9,6.22-23.23,20.97l-21.59,34.48v43.19
				c0,16.35,1.64,19.91,15.05,22.22v1.78h-47.11v-1.78c13.25-2.31,14.89-5.87,14.89-22.22v-38.39l-21.27-38.75
				c-8.51-15.11-12.43-19.38-21.92-21.51v-1.78h42.86v1.78c-10.47,1.96-9,6.04-1.64,20.09L327.34,432l20.78-32.71
				c8.51-13.51,10.31-17.95,0.16-19.73V377.79z"/>
			<path style="fill:#060B33;" d="M463.94,478.04c5.89,15.64,8.02,20.26,17.99,22.4v1.78h-40.24v-1.78
				c10.96-1.78,10.31-6.4,5.07-20.62l-6.22-17.6h-44.66l-6.22,17.42c-5.23,14.4-5.89,19.02,5.07,20.8v1.78h-25.68v-1.78
				c9.65-1.96,11.94-6.4,17.83-21.69l37.3-102.74h2.94L463.94,478.04z M397.03,459.37h42.53l-20.94-60.08L397.03,459.37z"/>
			<path style="fill:#060B33;" d="M574.36,410.67h-1.64c-2.13-24.53-12.27-30.04-27.97-30.04h-7.52v96.7
				c0,17.24,1.64,20.8,15.38,23.11v1.78h-47.93v-1.78c13.74-2.31,15.38-5.87,15.38-23.11v-96.7h-7.69
				c-15.7,0-25.85,5.51-27.97,30.04h-1.64v-32.88h91.61V410.67z"/>
			<path style="fill:#060B33;" d="M670.06,478.04c5.89,15.64,8.02,20.26,17.99,22.4v1.78h-40.24v-1.78
				c10.96-1.78,10.31-6.4,5.07-20.62l-6.22-17.6h-44.66l-6.22,17.42c-5.23,14.4-5.89,19.02,5.07,20.8v1.78h-25.68v-1.78
				c9.65-1.96,11.94-6.4,17.83-21.69l37.3-102.74h2.94L670.06,478.04z M603.15,459.37h42.53l-20.94-60.08L603.15,459.37z"/>
			<path style="fill:#060B33;" d="M790.14,484.79c6.71,10.84,11.12,14.75,17.5,15.64v1.78h-39.42v-1.78c9-1.24,8.02-7.82,3.11-16
				l-25.68-42.3h-7.03v35.2c0,17.24,1.96,20.8,12.11,23.11v1.78h-41.39v-1.78c10.47-2.31,12.11-5.87,12.11-23.11v-74.66
				c0-17.24-1.64-20.8-12.11-23.11v-1.78h37.3c21.27,0,51.86,0,51.86,33.24c0,23.82-15.54,29.33-34.19,30.75L790.14,484.79z
				 M738.61,380.63v58.66h8.02c27.32,0,32.23-10.31,32.23-28.08c0-21.69-9.65-30.57-32.23-30.57H738.61z"/>
			<path style="fill:#060B33;" d="M922.15,478.04c5.89,15.64,8.02,20.26,17.99,22.4v1.78H899.9v-1.78
				c10.96-1.78,10.31-6.4,5.07-20.62l-6.22-17.6H854.1l-6.22,17.42c-5.23,14.4-5.89,19.02,5.07,20.8v1.78h-25.68v-1.78
				c9.65-1.96,11.94-6.4,17.83-21.69l37.3-102.74h2.94L922.15,478.04z M855.24,459.37h42.53l-20.94-60.08L855.24,459.37z"/>
		</g>
	</g>
</g>
<g>
</g>
<g>
</g>
<g>
</g>
<g>
</g>
<g>
</g>
<g>
</g>
<g>
</g>
<g>
</g>
<g>
</g>
<g>
</g>
<g>
</g>
<g>
</g>
<g>
</g>
<g>
</g>
<g>
</g>
</svg>
